<svg width="34" height="28" fill="none" xmlns="http://www.w3.org/2000/svg"><path fill-rule="evenodd" clip-rule="evenodd" d="m8.195.543 17.621.005.005-.001L34 9.462l-.002.001H34L16.995 28v-.008l-.001.008L.001 9.477H0v-.001L8.195.543Z" fill="#fff"/><path d="M9.803 2 3 9.527l14.106 12.19 8.06-12.2L9.804 2Z" fill="#69B1E9"/><path d="m3 9.526 14.106 15.608.706-9.783-.7-5.835L3 9.526Z" fill="#2681FF"/><path d="M17.111 21.711 31.223 9.516l-6.79-7.512-7.322 2.248v17.46Z" fill="#2681FF"/><path d="m9.802 2 7.309 7.527 7.322-7.523L9.803 2Z" fill="#87C0ED"/><path d="m17.112 9.526-.005 15.608L31.223 9.516l-14.111.01Z" fill="#0051BE"/></svg>