<svg width="132" height="40" viewBox="0 0 132 40" fill="none" xmlns="http://www.w3.org/2000/svg">
<g clip-path="url(#clip0)">
<path d="M15.2316 31.9307C12.6055 32.0237 10.0352 31.1607 8 29.5028L10.0863 25.8265C11.8248 27.0055 13.3548 27.6297 14.8154 27.6297C15.2288 27.6621 15.642 27.565 15.9975 27.352C16.1109 27.2874 16.2077 27.1972 16.2801 27.0888C16.3526 26.9804 16.3987 26.8566 16.4148 26.7273C16.4257 26.6073 16.4016 26.4868 16.3454 26.3802C16.2907 26.2562 16.1913 26.1571 16.0669 26.1025C15.928 26.0332 15.8585 25.9639 15.719 25.8947C15.5621 25.8138 15.3992 25.7452 15.2316 25.6896C15.042 25.6319 14.8562 25.5625 14.6753 25.4818C14.4742 25.3913 14.2643 25.3217 14.0489 25.2739C13.7705 25.2046 13.5621 25.1353 13.3537 25.066C12.1155 24.6478 10.9621 24.0127 9.94741 23.1907C9.55577 22.801 9.24872 22.335 9.04536 21.8219C8.84199 21.3087 8.74666 20.7593 8.7653 20.2079C8.73407 19.4294 8.89537 18.6552 9.23499 17.9535C9.5746 17.2519 10.0821 16.6444 10.7127 16.1846C12.2263 15.1602 14.0305 14.6495 15.858 14.7284C18.2632 14.6714 20.6247 15.3756 22.6038 16.74L20.587 20.2777C19.2895 19.4613 17.8066 18.9841 16.2753 18.8903C15.8619 18.8579 15.4487 18.955 15.0932 19.168C14.9688 19.2183 14.8625 19.3048 14.788 19.4162C14.7136 19.5276 14.6745 19.6588 14.6758 19.7927C14.6758 20.0704 14.8148 20.2783 15.1627 20.4862C15.7184 20.7726 16.3006 21.0049 16.9011 21.1796C18.2198 21.6292 19.4992 22.1859 20.7265 22.8443C21.3219 23.2525 21.8056 23.8026 22.1337 24.4446C22.4619 25.0866 22.6241 25.8001 22.6056 26.5205C22.6355 27.3215 22.4517 28.116 22.073 28.8229C21.6942 29.5297 21.134 30.1236 20.4497 30.5438C18.8879 31.5146 17.0707 31.9976 15.2316 31.9307Z" fill="#1245FF"/>
<path d="M25.2471 31.5837V8H31.226V31.5837H25.2471Z" fill="#1245FF"/>
<path d="M42.2851 32.0001C39.6425 32.0001 37.4866 31.2373 35.9566 29.6414C34.4266 28.0455 33.6619 25.9657 33.6619 23.3299C33.6619 20.6941 34.4266 18.5439 36.0267 17.0178C37.5561 15.4219 39.6407 14.6592 42.3552 14.6592C45.1368 14.6592 47.2231 15.4219 48.7531 16.948C50.2832 18.474 51.0479 20.6243 51.0479 23.3293C51.0479 25.9652 50.2832 28.0461 48.7531 29.6414C46.9889 31.2404 44.6673 32.087 42.2851 32.0001ZM39.2951 23.3299C39.2951 26.035 40.2688 27.3532 42.2857 27.3532C44.3026 27.3532 45.278 26.035 45.278 23.3299C45.278 20.6248 44.3043 19.3066 42.2874 19.3066C40.3383 19.3066 39.2951 20.6225 39.2951 23.3299Z" fill="#1245FF"/>
<path d="M64.5398 25.9657L66.2087 30.0582C64.5344 31.3321 62.4721 31.9938 60.3671 31.9324C59.5508 31.9727 58.7349 31.8456 57.9698 31.559C57.2048 31.2724 56.5067 30.8323 55.9188 30.2661C54.8062 29.1564 54.2498 27.6303 54.2498 25.5494V18.8903H52.1606V15.0061H54.247V9.94238H60.1581V15.0754H65.0955V18.9596H60.1581V24.8559C60.1581 26.1741 60.8534 26.8676 62.175 26.8676C63.0303 26.7848 63.8473 26.4732 64.5398 25.9657Z" fill="#1245FF"/>
<path d="M79.5615 25.9657L81.2305 30.0582C79.5561 31.3321 77.4938 31.9938 75.3888 31.9324C74.5725 31.9727 73.7567 31.8456 72.9916 31.559C72.2265 31.2724 71.5284 30.8323 70.9405 30.2661C69.8279 29.1564 69.2716 27.6303 69.2716 25.5494V18.8903H67.1824V15.0061H69.2687V9.94238H75.1798V15.0754H80.1172V18.9596H75.1798V24.8559C75.1798 26.1741 75.8751 26.8676 77.1967 26.8676C78.0548 26.7967 78.8749 26.4839 79.5615 25.9657Z" fill="white"/>
<path d="M82.7605 31.5843V15.0754H88.6716V31.5843H82.7605Z" fill="white"/>
<path d="M99.3819 31.9307C97.2291 31.9949 95.1352 31.2241 93.5402 29.7805C91.9407 28.3238 91.106 26.2451 91.106 23.4684C91.106 20.7633 91.9407 18.6131 93.5402 17.0178C95.2092 15.4224 97.2984 14.6591 99.9382 14.6591C101.417 14.6494 102.875 15.007 104.18 15.6996C105.484 16.3642 106.535 17.4361 107.171 18.7517L102.79 21.0405C102.582 20.5934 102.266 20.2045 101.871 19.9082C101.476 19.6119 101.014 19.4174 100.526 19.3419C100.037 19.2665 99.5378 19.3124 99.0714 19.4756C98.6051 19.6389 98.1864 19.9144 97.8524 20.2778C97.2261 20.9025 96.9482 21.9424 96.9482 23.3299C96.9482 24.6479 97.2264 25.619 97.7829 26.2434C98.0416 26.539 98.3631 26.7734 98.724 26.9294C99.0849 27.0854 99.4762 27.1592 99.8693 27.1453C101.122 27.1453 102.234 26.3825 103.068 24.9258L107.31 27.1453C105.919 30.3343 103.207 31.9307 99.3819 31.9307Z" fill="white"/>
<path d="M116.42 14.659C118.41 14.5716 120.364 15.2129 121.914 16.4622C123.305 17.6413 124 19.3758 124 21.526V31.5836H118.923V29.8497C118.302 30.5341 117.538 31.0749 116.685 31.4344C115.832 31.7938 114.911 31.9632 113.986 31.9306C112.49 32.0084 111.022 31.5119 109.882 30.5432C109.362 30.0728 108.954 29.4916 108.689 28.8428C108.424 28.1939 108.309 27.494 108.352 26.7948C108.328 25.5995 108.749 24.4377 109.534 23.5348C110.361 22.689 111.39 22.0682 112.525 21.7316C113.817 21.3825 115.151 21.219 116.489 21.246C117.233 21.2509 117.976 21.2972 118.715 21.3846C118.739 21.048 118.675 20.711 118.528 20.4069C118.382 20.1027 118.158 19.8421 117.88 19.6506C117.291 19.2414 116.579 19.0456 115.863 19.0958C114.099 19.156 112.398 19.7619 110.995 20.8297L108.77 17.292C109.758 16.4157 110.918 15.7543 112.177 15.3496C113.541 14.8791 114.976 14.6455 116.42 14.659ZM115.655 27.6302C116.03 27.634 116.402 27.5623 116.749 27.4192C117.095 27.2761 117.409 27.0647 117.672 26.7976C118.267 26.2074 118.615 25.4142 118.646 24.5781H116.767C114.959 24.5781 114.054 25.133 114.054 26.1734C114.049 26.3661 114.083 26.5578 114.155 26.7367C114.227 26.9157 114.335 27.0781 114.472 27.2139C114.623 27.3709 114.808 27.4904 115.014 27.5627C115.219 27.635 115.439 27.6581 115.655 27.6302Z" fill="white"/>
</g>
<defs>
<clipPath id="clip0">
<rect x="8" y="8" width="116" height="24" fill="white"/>
</clipPath>
</defs>
</svg>
