<svg width="132" height="40" fill="none" xmlns="http://www.w3.org/2000/svg"><g clip-path="url(#a)"><path d="M15.232 31.931A10.844 10.844 0 0 1 8 29.503l2.086-3.676c1.739 1.179 3.269 1.803 4.73 1.803.413.032.826-.065 1.181-.278a.839.839 0 0 0 .418-.625.623.623 0 0 0-.07-.346.542.542 0 0 0-.278-.278c-.139-.07-.209-.139-.348-.208-.157-.081-.32-.15-.487-.205a4.804 4.804 0 0 1-.557-.208 3.24 3.24 0 0 0-.626-.208 11.007 11.007 0 0 1-4.101-2.083 4.02 4.02 0 0 1-1.183-2.983 4.738 4.738 0 0 1 1.948-4.023 8.525 8.525 0 0 1 5.145-1.456 11.409 11.409 0 0 1 6.746 2.011l-2.017 3.538a9.146 9.146 0 0 0-4.312-1.387 1.997 1.997 0 0 0-1.182.277.669.669 0 0 0-.417.625c0 .278.139.486.487.693a9.725 9.725 0 0 0 1.738.694 25.486 25.486 0 0 1 3.826 1.665 4.33 4.33 0 0 1 1.879 3.676 4.518 4.518 0 0 1-2.156 4.023 9.25 9.25 0 0 1-5.218 1.387ZM25.248 31.584V8h5.979v23.584h-5.979ZM42.285 32c-2.642 0-4.798-.763-6.328-2.359-1.53-1.595-2.295-3.675-2.295-6.311s.765-4.786 2.365-6.312c1.53-1.596 3.614-2.359 6.328-2.359 2.782 0 4.868.763 6.398 2.289 1.53 1.526 2.295 3.676 2.295 6.381 0 2.636-.765 4.717-2.295 6.312a9.136 9.136 0 0 1-6.468 2.36Zm-2.99-8.67c0 2.705.974 4.023 2.99 4.023 2.018 0 2.993-1.318 2.993-4.023 0-2.705-.974-4.023-2.99-4.023-1.95 0-2.993 1.316-2.993 4.023ZM64.54 25.966l1.668 4.092a9.205 9.205 0 0 1-5.841 1.874 5.991 5.991 0 0 1-4.449-1.666c-1.112-1.11-1.669-2.636-1.669-4.717V18.89H52.16v-3.884h2.087V9.942h5.91v5.133h4.938v3.885h-4.937v5.896c0 1.318.695 2.012 2.017 2.012a4.78 4.78 0 0 0 2.364-.902Z" fill="#0038FF"/><path d="m79.56 25.966 1.67 4.092a9.205 9.205 0 0 1-5.842 1.874 5.992 5.992 0 0 1-4.448-1.666c-1.113-1.11-1.67-2.636-1.67-4.717V18.89h-2.088v-3.884h2.086V9.942h5.911v5.133h4.938v3.885h-4.938v5.896c0 1.318.695 2.012 2.017 2.012a4.547 4.547 0 0 0 2.365-.902ZM82.76 31.584V15.075h5.91v16.51h-5.91ZM99.381 31.931a8.336 8.336 0 0 1-5.841-2.15c-1.6-1.457-2.434-3.536-2.434-6.312 0-2.705.834-4.856 2.434-6.451 1.669-1.595 3.758-2.359 6.398-2.359a8.93 8.93 0 0 1 4.242 1.04 6.699 6.699 0 0 1 2.99 3.053l-4.381 2.289a2.994 2.994 0 0 0-2.264-1.699 3.01 3.01 0 0 0-2.673.936c-.626.625-.904 1.665-.904 3.052 0 1.318.278 2.29.835 2.914a2.643 2.643 0 0 0 2.086.901c1.253 0 2.364-.762 3.199-2.219l4.242 2.22c-1.392 3.188-4.104 4.785-7.929 4.785ZM116.42 14.66a8.181 8.181 0 0 1 5.494 1.802c1.391 1.18 2.086 2.914 2.086 5.064v10.058h-5.077V29.85a6.375 6.375 0 0 1-4.937 2.081 5.864 5.864 0 0 1-4.103-1.388 4.67 4.67 0 0 1-1.53-3.748 4.811 4.811 0 0 1 1.182-3.26 6.935 6.935 0 0 1 2.99-1.803 14.116 14.116 0 0 1 3.965-.486c.743.005 1.486.051 2.225.139a1.94 1.94 0 0 0-.835-1.734 3.15 3.15 0 0 0-2.017-.555 8.518 8.518 0 0 0-4.868 1.734l-2.225-3.538a9.536 9.536 0 0 1 3.407-1.942c1.365-.47 2.8-.704 4.243-.69Zm-.765 12.97a2.793 2.793 0 0 0 2.017-.832c.595-.59.943-1.384.974-2.22h-1.879c-1.808 0-2.712.555-2.712 1.596a1.41 1.41 0 0 0 .417 1.04 1.39 1.39 0 0 0 1.183.416Z" fill="#000"/></g><defs><clipPath id="a"><path fill="#fff" d="M8 8h116v24H8z"/></clipPath></defs></svg>