<svg width="55" height="33" viewBox="0 0 55 33" fill="none" xmlns="http://www.w3.org/2000/svg">
<g clip-path="url(#clip0)">
<path d="M51.7209 0H3.27913C0.149052 0 0 4.10667 0 4.10667H55C55 4.10667 55 0 51.7209 0Z" fill="#1BC500"/>
<path d="M25.0407 32.2667L10.1355 22.1467C8.04883 20.68 6.70736 18.1867 6.70736 15.6933V4.10667C6.70736 4.10667 6.70736 0 3.42823 0C0.745304 0 27.4255 0 27.4255 0C27.4255 0 55.1491 0 51.4228 0C48.1437 0 48.1437 4.10667 48.1437 4.10667V15.5467C48.1437 18.1867 46.8022 20.5333 44.7155 22L29.8103 32.2667C28.4689 33.2933 26.5312 33.2933 25.0407 32.2667Z" fill="url(#paint0_linear)"/>
<path d="M18.8225 9H20.9999V17.8696H18.8225L14.1773 12.3913V18H11.9999V9H14.0321L18.8225 14.7391V9Z" fill="white"/>
<path d="M29.8599 9V10.8529H25.0999V12.7059H29.2999V14.4265H25.0999V16.2794H29.9999V18H22.9999V9H29.8599Z" fill="white"/>
<path d="M34.3399 14.1618L36.0199 9H38.2599L39.9399 14.1618L41.7599 9H43.9999L40.6399 18H39.0999L36.9999 11.7794L34.8999 18H33.3599L29.9999 9H32.2399L34.3399 14.1618Z" fill="white"/>
</g>
<defs>
<linearGradient id="paint0_linear" x1="3.23865" y1="0" x2="45.4863" y2="39.7178" gradientUnits="userSpaceOnUse">
<stop stop-color="#4EE736"/>
<stop offset="1" stop-color="#40C72C"/>
</linearGradient>
<clipPath id="clip0">
<rect width="55" height="33" fill="white"/>
</clipPath>
</defs>
</svg>
