<svg width="55" height="33" viewBox="0 0 55 33" fill="none" xmlns="http://www.w3.org/2000/svg">
<g clip-path="url(#clip0)">
<path d="M51.7209 0H3.27913C0.149052 0 0 4.10667 0 4.10667H55C55 4.10667 55 0 51.7209 0Z" fill="#1245FF"/>
<path d="M25.0406 32.2667L10.1354 22.1467C8.0487 20.68 6.70724 18.1867 6.70724 15.6933V4.10667C6.70724 4.10667 6.70724 0 3.42811 0C0.745182 0 27.4254 0 27.4254 0C27.4254 0 55.149 0 51.4227 0C48.1436 0 48.1435 4.10667 48.1435 4.10667V15.5467C48.1435 18.1867 46.8021 20.5333 44.7154 22L29.8102 32.2667C28.4688 33.2933 26.5311 33.2933 25.0406 32.2667Z" fill="url(#paint0_linear)"/>
<path d="M15.912 10.872H13V9.156H20.93V10.872H18.018V18.256H15.912V10.872Z" fill="white"/>
<path d="M26.3432 18.412C25.3985 18.412 24.5448 18.2083 23.7822 17.801C23.0282 17.3937 22.4345 16.8347 22.0012 16.124C21.5765 15.4047 21.3642 14.5987 21.3642 13.706C21.3642 12.8133 21.5765 12.0117 22.0012 11.301C22.4345 10.5817 23.0282 10.0183 23.7822 9.611C24.5448 9.20367 25.3985 9 26.3432 9C27.2878 9 28.1372 9.20367 28.8912 9.611C29.6452 10.0183 30.2388 10.5817 30.6722 11.301C31.1055 12.0117 31.3222 12.8133 31.3222 13.706C31.3222 14.5987 31.1055 15.4047 30.6722 16.124C30.2388 16.8347 29.6452 17.3937 28.8912 17.801C28.1372 18.2083 27.2878 18.412 26.3432 18.412ZM26.3432 16.618C26.8805 16.618 27.3658 16.4967 27.7992 16.254C28.2325 16.0027 28.5705 15.656 28.8132 15.214C29.0645 14.772 29.1902 14.2693 29.1902 13.706C29.1902 13.1427 29.0645 12.64 28.8132 12.198C28.5705 11.756 28.2325 11.4137 27.7992 11.171C27.3658 10.9197 26.8805 10.794 26.3432 10.794C25.8058 10.794 25.3205 10.9197 24.8872 11.171C24.4538 11.4137 24.1115 11.756 23.8602 12.198C23.6175 12.64 23.4962 13.1427 23.4962 13.706C23.4962 14.2693 23.6175 14.772 23.8602 15.214C24.1115 15.656 24.4538 16.0027 24.8872 16.254C25.3205 16.4967 25.8058 16.618 26.3432 16.618Z" fill="white"/>
<path d="M36.8439 9.156C37.6499 9.156 38.3476 9.29033 38.9369 9.559C39.5349 9.82767 39.9943 10.209 40.3149 10.703C40.6356 11.197 40.7959 11.782 40.7959 12.458C40.7959 13.1253 40.6356 13.7103 40.3149 14.213C39.9943 14.707 39.5349 15.0883 38.9369 15.357C38.3476 15.617 37.6499 15.747 36.8439 15.747H35.0109V18.256H32.9049V9.156H36.8439ZM36.7269 14.031C37.3596 14.031 37.8406 13.8967 38.1699 13.628C38.4993 13.3507 38.6639 12.9607 38.6639 12.458C38.6639 11.9467 38.4993 11.5567 38.1699 11.288C37.8406 11.0107 37.3596 10.872 36.7269 10.872H35.0109V14.031H36.7269Z" fill="white"/>
</g>
<defs>
<linearGradient id="paint0_linear" x1="3.23853" y1="0" x2="33.9746" y2="45.1493" gradientUnits="userSpaceOnUse">
<stop stop-color="#6C8DFF"/>
<stop offset="1" stop-color="#1044FF"/>
</linearGradient>
<clipPath id="clip0">
<rect width="55" height="33" fill="white"/>
</clipPath>
</defs>
</svg>
